#!OML:ASF E:/inclinewalkrobotboard/Project1/Captureday1/Session1/subject1.ASF
:FULLY-SPECIFIED
:DEGREES
13
root 0 0 0 1.0549030730793172 -3.6759326192021837 1.863375137892527
lowerback 11.924905777666515 0.8574877793894757 -0.05904329910784503
upperback -4.225444106404835 1.0872244806824227 -0.5572380278647162
thorax -11.299405317433818 0.49641827465092 -0.800693989839865
lowerneck -5.673275851226933 1.4469481310041679 4.564983461577928
upperneck 18.084603547641056 2.883225510225839 -8.316482823715951
head 6.590648571965616 1.047964281090733 -3.220735624553158
rclavicle -9.182542709846443E-16 -3.3408845073598026E-16
rhumerus 20.159027012345078 14.707486892351586 -48.14029924573074
rradius 72.54423584198318
rwrist 26.738243361463084
rhand -34.760166885306894 -57.399410230846826
rfingers 7.125020000000038
rthumb -7.921354941291541 -87.31354651155208
lclavicle 8.821893461350361E-16 -1.7441628186716381E-15
lhumerus 20.849949837841457 -12.749018793732537 45.28487052419843
lradius 69.94433605045867
lwrist -22.274774390943474
lhand -44.77660310801443 -69.73425248488292
lfingers 7.1250200000000286
lthumb -17.568035518668324 -40.536282140919155
rfemur -24.893652899992748 -2.2118120674129558 17.207423728451474
rtibia 54.04909199187813
rfoot -29.07866779509834 -16.734103898352465
rtoes -17.672290764685428
lfemur -26.68179208629974 2.406120296548793 -18.294968593093696
ltibia 54.165427467880434
lfoot -31.06324130888109 -3.5265622614306977
ltoes -19.62748890833517
14
root 0 0 0 1.0542247899434583 -3.677207262272347 1.8632244748047144
lowerback 11.924813151951842 0.8573709611071946 -0.05883757121989569
upperback -4.225064478747623 1.0871173400664045 -0.5570098016511644
thorax -11.298925606548957 0.4963633829756154 -0.800528250604083
lowerneck -5.671281470664443 1.4467226816847512 4.5652640158367666
upperneck 18.083463535449226 2.883031888117773 -8.317372380379638
head 6.5899441364644895 1.0478834361416947 -3.2210812737112366
rclavicle -9.063089514664847E-16 -3.43346222604199E-16
rhumerus 20.158680882473348 14.70804732211224 -48.14061660969167
rradius 72.54405994438446
rwrist 26.737606121492366
rhand -34.75926526327309 -57.39791663057382
rfingers 7.125020000000038
rthumb -7.920428312169451 -87.312692115268
lclavicle 8.91578171766078E-16 -1.7506203820133047E-15
lhumerus 20.849845318625732 -12.749080274534805 45.28410277689938
lradius 69.94431745983223
lwrist -22.27522210973501
lhand -44.77604335604398 -69.73237075318586
lfingers 7.1250200000000286
lthumb -17.56740659098242 -40.53427501949195
rfemur -24.894377682106935 -2.2122833982003955 17.208251293789218
rtibia 54.048688131034304
rfoot -29.079411287867423 -16.733106980302093
rtoes -17.671965760529247
lfemur -26.679628141962645 2.4057772570284754 -18.294924416738105
ltibia 54.166525775722285
lfoot -31.061775050078406 -3.5288171729920204
ltoes -19.62813136915223
15
root 0 0 0 1.0538784708390547 -3.6778300503146593 1.8631485549767293
lowerback 11.924805318531455 0.8573101161644705 -0.05869502040094529
upperback -4.224848774457393 1.0870644571194776 -0.5568825214004267
thorax -11.29867261973866 0.4963355460037894 -0.8004551228901435
lowerneck -5.67005701306287 1.446549508094158 4.565401811523416
upperneck 18.082713130763498 2.8828454825576677 -8.317881695248998
head 6.589494129700889 1.047807826843461 -3.2212821584186107
rclavicle -9.040489849373086E-16 -3.4280385590154137E-16
rhumerus 20.158999590930158 14.708480185173872 -48.140488552536226
rradius 72.5442906261371
rwrist 26.73743937958391
rhand -34.75856262501265 -57.396866746440466
rfingers 7.125020000000038
rthumb -7.919756736357167 -87.3116538197288
lclavicle 8.935961226512693E-16 -1.7500258297567801E-15
lhumerus 20.85016491943709 -12.749734212258295 45.28352490339285
lradius 69.94480756927392
lwrist -22.275318980227095
lhand -44.775750045359 -69.73039709532114
lfingers 7.1250200000000286
lthumb -17.56712267721507 -40.53228301443477
rfemur -24.89435805414826 -2.21230375214188 17.208339403283194
rtibia 54.04873712051167
rfoot -29.079352177404466 -16.73303348011706
rtoes -17.6718988833558
lfemur -26.679144200145423 2.405784622799363 -18.294866901490934
ltibia 54.16719280776099
lfoot -31.061306947842976 -3.5291401597201437
ltoes -19.62856735574556
16
root 0 0 0 1.0534837113348678 -3.678553969685961 1.8630560903804945
lowerback 11.924794650077768 0.8572399275235997 -0.05853288114120292
upperback -4.224599901201689 1.0870034451708501 -0.5567345685355969
thorax -11.298379936557145 0.4963034657720246 -0.8003682958228715
lowerneck -5.668665876939166 1.4463517864823228 4.565552329472764
upperneck 18.081858037096026 2.882632991094135 -8.318454889487953
head 6.5889821018624435 1.0477217327136383 -3.2215075765982912
rclavicle -9.017852709217302E-16 -3.433715536120154E-16
rhumerus 20.159547514435523 14.709112907980902 -48.14024647977745
rradius 72.54465891563315
rwrist 26.737290982039767
rhand -34.757620943241534 -57.39561413280069
rfingers 7.125020000000038
rthumb -7.918854885643598 -87.31038723010286
lclavicle 8.964035891258536E-16 -1.7503447389405881E-15
lhumerus 20.85058569995776 -12.750441696984172 45.282806802763645
lradius 69.94530826400228
lwrist -22.275421473631585
lhand -44.775408006022325 -69.72832116976176
lfingers 7.1250200000000286
lthumb -17.566792552647073 -40.530169228969086
rfemur -24.89438209776951 -2.2123000924981806 17.208365956482307
rtibia 54.04880284594011
rfoot -29.0793653081431 -16.732989931861603
rtoes -17.67180117974664
lfemur -26.678611935252277 2.4059005500462325 -18.294838201628433
ltibia 54.16715575891446
lfoot -31.061043441300907 -3.5290607122500477
ltoes -19.62925863002983
17
root 0 0 0 1.0531868040612165 -3.679096785691619 1.8629895494279411
lowerback 11.924783447959332 0.8571879495441224 -0.05841032072128405
upperback -4.2244126664259305 1.086958434252737 -0.5566251916946853
thorax -11.298157872403063 0.49627984069662767 -0.8003051706078401
lowerneck -5.667627179165505 1.4462058447514918 4.565673493552944
upperneck 18.08122071273896 2.8824777476561314 -8.318892737128202
head 6.588600233950541 1.0476586563673944 -3.2216804184309606
rclavicle -8.99513338691408E-16 -3.436255915446528E-16
rhumerus 20.15995422982955 14.709605176167903 -48.140079779621665
rradius 72.54493287168904
rwrist 26.73714848746263
rhand -34.756859202288254 -57.39453571493891
rfingers 7.125020000000038
rthumb -7.918123414130852 -87.30930492072244
lclavicle 8.990372887365095E-16 -1.7503677589992409E-15
lhumerus 20.850967543047787 -12.751109756855866 45.28219610448613
lradius 69.94576929188224
lwrist -22.27548600817289
lhand -44.775108917680285 -69.72643766370419
lfingers 7.125020000000029
lthumb -17.56650069377108 -40.52825574282777
rfemur -24.89440602764484 -2.2122980245404924 17.208374600284444
rtibia 54.04881388500441
rfoot -29.07941593976799 -16.732960717592142
rtoes -17.671809213136726
lfemur -26.67803308588709 2.4059452151323413 -18.294805551663988
ltibia 54.166865374649625
lfoot -31.060967133860792 -3.5289329731647068
ltoes -19.630144115018574
18
root 0 0 0 1.0538934491650584 -3.6777776240669757 1.8631524229274405
lowerback 11.924863161103726 0.8573113860322849 -0.05862853268980689
upperback -4.22480978528416 1.087071432919804 -0.5568682222550135
thorax -11.298650328797804 0.49633800854302507 -0.8004801945488524
lowerneck -5.669752134894971 1.4464557764099781 4.56540088089994
upperneck 18.08244985783117 2.8827036297253743 -8.317974011461814
head 6.589355990302522 1.0477521406420502 -3.2213245781145314
rclavicle -9.09929027040533E-16 -3.346944145713761E-16
rhumerus 20.160461165149517 14.709228709009498 -48.13974360982891
rradius 72.54520782594514
rwrist 26.73771606934255
rhand -34.757510230637614 -57.39561271691835
rfingers 7.125020000000038
rthumb -7.918802556022062 -87.30972685966279
lclavicle 8.919327282190812E-16 -1.7439806892021298E-15
lhumerus 20.85131520715551 -12.75141711618561 45.282679589841536
lradius 69.94597951383051
lwrist -22.275000057379607
lhand -44.77551662986437 -69.72744516284352
lfingers 7.1250200000000286
lthumb -17.56697453083512 -40.52935872667608
rfemur -24.8937025893664 -2.21179476029098 17.20744861810901
rtibia 54.04906414460391
rfoot -29.07881651754313 -16.733979394392133
rtoes -17.6724076964671
lfemur -26.679449393643324 2.4062000158121046 -18.294836224660614
ltibia 54.164100292593474
lfoot -31.063100823972633 -3.5261287884848107
ltoes -19.63108639215121
19
root 0 0 0 1.0534168197190217 -3.678683730536497 1.86304646285835
lowerback 11.924778948906848 0.8572298332128102 -0.058505301871807025
upperback -4.224556685360769 1.0869949112328372 -0.5567138783132914
thorax -11.298321099319793 0.4962991761291553 -0.8003573647249809
lowerneck -5.668460246601207 1.4463284376929266 4.565598629309212
upperneck 18.08173939786476 2.882613935695701 -8.318566715110315
head 6.588909303497753 1.0477135468406575 -3.22155304888501
rclavicle -8.996089640330108E-16 -3.438373956850575E-16
rhumerus 20.15983431333091 14.709448091083214 -48.1401705350617
rradius 72.54484175032985
rwrist 26.73718195978001
rhand -34.75713082128946 -57.39486636664054
rfingers 7.125020000000038
rthumb -7.918377687005517 -87.30962407799575
lclavicle 8.99412063684617E-16 -1.7504741958148474E-15
lhumerus 20.85094407527301 -12.751009348803803 45.28234030724294
lradius 69.94563977095622
lwrist -22.275403524936408
lhand -44.775169571613496 -69.72689682299108
lfingers 7.1250200000000286
lthumb -17.566553335893488 -40.52870777588115
rfemur -24.894416581365412 -2.2122694900496165 17.20827131213088
rtibia 54.04866428285305
rfoot -29.0795285568191 -16.733006443437105
rtoes -17.67206084376713
lfemur -26.67773878679314 2.405839219386734 -18.294817242690915
ltibia 54.16545534081512
lfoot -31.061662793239076 -3.5284718670525694
ltoes -19.63103621208163
20
root 0 0 0 1.0532305610983865 -3.6790143070869066 1.8630057860067764
lowerback 11.924777666195263 0.8571969484099918 -0.05842865492150698
upperback -4.224441568116606 1.0869662727386136 -0.5566452292799395
thorax -11.298187740306748 0.49628406084050375 -0.8003180412607663
lowerneck -5.667795400367982 1.446233588497552 4.5656702722676
upperneck 18.081331129939347 2.8825106843030177 -8.318839408698619
head 6.588664607412627 1.047671733972191 -3.2216604651383225
rclavicle -8.986578501134923E-16 -3.432007589761309E-16
rhumerus 20.159926492207067 14.709605971238698 -48.14013000321362
rradius 72.5449187800488
rwrist 26.737098403682523
rhand -34.75684672011153 -57.39441447754366
rfingers 7.125020000000038
rthumb -7.918108198149428 -87.30918733465246
lclavicle 8.998958093304851E-16 -1.7499088408354482E-15
lhumerus 20.851048293217538 -12.75128487025962 45.28210825681621
lradius 69.94587042807271
lwrist -22.275464603769475
lhand -44.77504767405743 -69.72599701117261
lfingers 7.125020000000029
lthumb -17.566436812498893 -40.52780789206216
rfemur -24.894388952524064 -2.2122923536728556 17.208355436400048
rtibia 54.04871759847517
rfoot -29.07944609331389 -16.73295234019037
rtoes -17.67197551258426
lfemur -26.67762289476516 2.405834236893559 -18.294780719858398
ltibia 54.16633299874664
lfoot -31.06121573226478 -3.5288642667709396
ltoes -19.63090388680922
